<?xml version="1.0" encoding="utf-8"?>
<!-- Generator: Adobe Illustrator 14.0.0, SVG Export Plug-In . SVG Version: 6.00 Build 43363)  -->
<!DOCTYPE svg PUBLIC "-//W3C//DTD SVG 1.1//EN" "http://www.w3.org/Graphics/SVG/1.1/DTD/svg11.dtd">
<svg version="1.1"
	 id="svg2" xmlns:sodipodi="http://sodipodi.sourceforge.net/DTD/sodipodi-0.dtd" xmlns:dc="http://purl.org/dc/elements/1.1/" xmlns:cc="http://creativecommons.org/ns#" xmlns:svg="http://www.w3.org/2000/svg" xmlns:rdf="http://www.w3.org/1999/02/22-rdf-syntax-ns#" xmlns:inkscape="http://www.inkscape.org/namespaces/inkscape" inkscape:version="0.48.2 r9819" sodipodi:docname="playing cards.svg"
	 xmlns="http://www.w3.org/2000/svg" xmlns:xlink="http://www.w3.org/1999/xlink" x="0px" y="0px" width="90.984px" height="98px"
	 viewBox="0 0 90.984 98" enable-background="new 0 0 90.984 98" xml:space="preserve">
<sodipodi:namedview  inkscape:window-maximized="1" id="base" fit-margin-top="0" inkscape:cx="111.39086" inkscape:window-x="0" inkscape:current-layer="layer1" inkscape:window-y="24" inkscape:pageopacity="0.0" fit-margin-bottom="0" bordercolor="#666666" inkscape:cy="43.923364" inkscape:window-height="1056" fit-margin-left="0" showgrid="false" pagecolor="#ffffff" borderopacity="1.0" inkscape:window-width="1920" inkscape:document-units="px" fit-margin-right="0" inkscape:zoom="5.6" inkscape:pageshadow="2">
	</sodipodi:namedview>
<g id="layer1" transform="translate(1572.7881,-718.09392)" inkscape:label="Layer 1" inkscape:groupmode="layer">
	
		<path id="path3022" inkscape:export-filename="/home/jcd/Pictures/playingcards.png" inkscape:connector-curvature="0" inkscape:export-ydpi="317.56" inkscape:export-xdpi="317.56" d="
		M-1527.363,718.095c-0.591,0.023-1.106,0.407-1.299,0.966l-16.859,2.297l-0.422-0.701c-0.253-0.416-0.699-0.675-1.186-0.688
		c-0.275-0.009-0.547,0.062-0.783,0.204l-3.228,1.952l-2.066,0.282c-0.784,0.106-1.334,0.828-1.229,1.612l0.013,0.09l-17.674,10.686
		c-0.678,0.409-0.896,1.29-0.487,1.968c0.001,0.001,0.002,0.003,0.002,0.004l21.065,34.842c-0.211,1.172-0.056,2.125,0.031,2.52
		c-0.671,8.186,1.213,17.494,1.334,18.084l-0.704,4.641c-2.723-0.885-3.752,1.851-3.752,1.851l-1.072,5.724
		c0,0,14.933,4.692,21.773,11.668c0,0,4.564-1.564,5.771-4.516c-0.321-1.035-0.776-1.997-1.334-2.895l1.518-4.359
		c3.418-2.066,5.245-6.336,6.366-10.07c1.056-3.517,1.39-6.342,1.451-6.898c0.812-0.756,1.903-1.953,3.279-3.568
		c1.194-1.402,2.529-3.037,3.846-4.711l30.726-27.587c0.59-0.528,0.64-1.435,0.111-2.025c0,0-0.001-0.001-0.002-0.002
		l-17.258-19.219l0.821-3.087c0.203-0.765-0.253-1.549-1.018-1.753l-24.488-6.511c-0.273-0.219-0.617-0.33-0.967-0.313
		c-0.043,0.002-0.087,0.006-0.129,0.012l-0.024,0.004l-1.702-0.454C-1527.075,718.105-1527.219,718.089-1527.363,718.095
		L-1527.363,718.095z M-1526.286,721.28l0.571,0.153c0.009,0.003,0.019,0.005,0.027,0.008l0.324,0.086
		c0.007,0.001,0.014,0.002,0.021,0.004l23.597,6.276l-0.051,0.191c-0.041-0.01-0.083-0.018-0.125-0.023
		c-0.047-0.006-0.094-0.01-0.141-0.012c-0.007,0-0.014,0-0.021,0c-0.07-0.002-0.141,0-0.211,0.008
		c-0.025,0.003-0.05,0.007-0.074,0.012c-0.022,0.004-0.045,0.01-0.067,0.016c-0.019,0.003-0.036,0.007-0.055,0.012
		c-0.006,0.001-0.011,0.002-0.016,0.004c-0.041,0.011-0.082,0.024-0.122,0.039c-0.024,0.01-0.049,0.021-0.073,0.031
		c-0.021,0.007-0.04,0.015-0.06,0.023c-0.004,0.003-0.008,0.005-0.012,0.008c-0.043,0.021-0.085,0.045-0.125,0.071
		c-0.004,0.002-0.008,0.005-0.013,0.008c-0.032,0.021-0.063,0.043-0.094,0.067c-0.026,0.021-0.053,0.043-0.078,0.066l-11.784,10.58
		c-0.231-0.543-0.403-1.028-0.509-1.452c-0.248-0.991-0.324-2.051-0.231-3.177c-0.46,0.792-0.956,1.448-1.482,1.972
		c-0.526,0.524-1.27,1.073-2.23,1.647c-0.63,0.372-1.557,0.801-2.785,1.287c-1.229,0.487-2.19,1.058-2.88,1.71
		c-0.503,0.467-0.868,1.051-1.1,1.757c-0.288,0.88-0.228,1.736,0.185,2.566c0.411,0.831,1.048,1.385,1.909,1.667
		c0.061,0.02,0.123,0.034,0.184,0.051l-5.251,4.714c-0.316-0.135-0.632-0.234-0.938-0.29c-0.669-0.12-1.265-0.139-1.948,0.204
		c-0.527,0.263-0.56,0.419-0.725,0.61c-0.164,0.191-0.33,0.409-0.516,0.665c-0.372,0.512-0.816,1.179-1.323,1.964
		c-0.35,0.542-0.816,1.328-1.213,1.964L-1526.286,721.28L-1526.286,721.28z M-1529.459,722.062l-3.952,14.86
		c-2.485-2.364-2.901-3.934-2.969-4.421c0.047,0.596-0.058,2.857-3.451,6.953c-3.268,3.941-4.927,4.555-5.435,4.648
		c0.517-0.018,2.269,0.219,6.307,3.365c0.9,0.701,1.628,1.354,2.227,1.952l-2.938,11.053c-0.151,0.571,0.062,1.177,0.54,1.526l0,0
		c0.038,0.028,0.077,0.054,0.117,0.078c0.012,0.007,0.023,0.013,0.035,0.02c-0.332,0.557-0.668,1.114-0.986,1.651l-6.061,0.825
		l-5.376-39.521l0.904-0.125c0.012-0.001,0.023-0.002,0.035-0.004h0.01l4.386-0.595c0.019-0.003,0.037-0.007,0.056-0.012
		l16.55-2.253H-1529.459z M-1553.999,727.211l1.143,8.408c-0.418,0.103-0.827,0.272-1.213,0.513
		c-1.971,1.23-2.559,3.841-1.314,5.833c0.642,1.028,1.648,1.686,2.742,1.917c0.269,0.056,0.602,0.165,0.955,0.309l0.125,0.943
		l0.021,0.137c-0.249-0.047-0.503-0.072-0.755-0.074c-0.769-0.007-1.543,0.197-2.242,0.634c-1.972,1.23-2.562,3.845-1.318,5.838
		c1.157,1.854,3.495,2.513,5.403,1.604l1.784,13.103c0.1,0.746,0.759,1.287,1.51,1.241c0.034-0.004,0.068-0.008,0.102-0.013
		l4.28-0.583l-5.971,3.611l-20.631-34.125L-1553.999,727.211L-1553.999,727.211z M-1502.232,731.421l0.148,0.165l16.816,18.726
		l-29.673,26.645l-12.724-14.172c0.125-0.333,0.238-0.641,0.384-1.017c0.935-2.419,1.235-4.338,1.067-5.912
		c-0.093-0.874-0.355-1.627-0.716-2.262L-1502.232,731.421L-1502.232,731.421z M-1530.555,754.177c0.016-0.001,0.03,0,0.051,0.004
		c0.204,0.037,0.458,0.137,0.686,0.321c0,0.001,0,0.003,0,0.004c0.01,0.004,0.011,0.008,0.016,0.012
		c0.026,0.022,0.052,0.049,0.078,0.074c-1.026,2.318-2.054,3.014-2.767,3.232c-0.218,0.066-0.417,0.092-0.599,0.094
		c0.347-0.556,0.682-1.089,0.986-1.561c0.491-0.762,0.92-1.399,1.236-1.835c0.112-0.155,0.186-0.246,0.262-0.341
		c0.019,0,0.032-0.003,0.047-0.004H-1530.555z M-1529.036,756.782c-0.017,0.94-0.258,2.24-0.92,3.952
		c-0.256,0.662-0.468,1.24-0.669,1.78c-0.011,0.025-0.021,0.052-0.031,0.078c0,0.006-0.019,0.044-0.047,0.121
		c-0.072,0.192-0.147,0.397-0.211,0.571c-0.123,0.338-0.114,0.709,0.024,1.041c-1.521,4.234-1.356,4.307-4.868,9.575
		c-0.186,0.279-0.228,0.631-0.113,0.946c0,0,0.999,2.794,1.562,5.951c0.281,1.579,0.446,3.241,0.34,4.625
		c-0.106,1.383-0.492,2.417-1.079,2.946c-0.432,0.395-0.461,1.064-0.065,1.495c0.39,0.425,1.049,0.46,1.481,0.077
		c1.201-1.08,1.644-2.686,1.772-4.354c0.128-1.669-0.064-3.472-0.364-5.157c-0.52-2.916-1.271-5.146-1.494-5.79
		c3.056-4.612,3.278-5.366,4.644-9.132l2.989,3.33c-1.304,1.005-2.789,2.14-4.323,4.503c-0.302,0.443-0.188,1.047,0.256,1.35
		c0.442,0.301,1.046,0.188,1.348-0.256c0.009-0.012,0.017-0.024,0.024-0.037c1.416-2.184,2.651-3.076,3.995-4.111l3.489,3.885
		l-4.315,4.648c-0.367,0.39-0.35,1.004,0.04,1.371c0.39,0.368,1.004,0.351,1.372-0.039c0.004-0.005,0.008-0.01,0.012-0.014
		l4.19-4.516l3.635,4.046c-0.763,0.94-1.508,1.846-2.202,2.661c-1.516,1.778-2.836,3.196-3.361,3.646l-0.344,0.293l-0.048,0.45
		c0,0-0.329,3.245-1.424,6.89c-1.094,3.645-3.017,7.549-5.665,8.965l-0.388,0.207l-0.145,0.414l-1.162,3.342
		c-4.84-5.318-13.405-7.809-17.571-9.011l0.782-5.161l0.027-0.199l-0.039-0.195c0,0-2.016-9.865-1.323-17.83l0.011-0.098
		c0.257-0.002,0.508-0.074,0.728-0.207l5.02-3.037c0.016,0.585,0.502,1.046,1.086,1.03c0.384-0.011,0.731-0.228,0.909-0.567
		c0,0,0.627-1.084,1.499-2.575l0.364-0.219c0.203-0.125,0.373-0.298,0.492-0.505c0.398-0.679,0.804-1.367,1.272-2.16
		c0.011-0.021,0.021-0.042,0.03-0.063c0.711-1.202,1.481-2.485,2.25-3.764c0.522-0.868,1.039-1.719,1.542-2.539
		c0.087,0.019,0.188,0.041,0.301,0.059c0.43,0.066,1.034,0.093,1.71-0.114c0.97-0.296,2.016-1.055,2.978-2.598L-1529.036,756.782z"
		/>
	
		<path id="path3831" inkscape:export-filename="/home/jcd/Pictures/playingcards.png" inkscape:connector-curvature="0" inkscape:export-ydpi="317.56" inkscape:export-xdpi="317.56" d="
		M-1501.076,758.412c1.465-1.625,1.488-4.128-0.013-5.784c-1.203-1.327-3.043-1.732-4.633-1.173
		c0.713-1.528,0.489-3.398-0.713-4.726c-1.501-1.656-3.994-1.877-5.756-0.579c-0.117,0.086-0.231,0.18-0.342,0.28
		c-3.886,3.522-1.397,9.954-2.74,13.681l0,0c3.842-0.971,9.998,2.136,13.884-1.386
		C-1501.279,758.625-1501.174,758.521-1501.076,758.412L-1501.076,758.412z"/>
</g>
</svg>
