<?xml version="1.0" encoding="utf-8"?>
<!-- Generator: Adobe Illustrator 14.0.0, SVG Export Plug-In . SVG Version: 6.00 Build 43363)  -->
<!DOCTYPE svg PUBLIC "-//W3C//DTD SVG 1.1//EN" "http://www.w3.org/Graphics/SVG/1.1/DTD/svg11.dtd">
<svg version="1.1" id="Layer_1" xmlns="http://www.w3.org/2000/svg" xmlns:xlink="http://www.w3.org/1999/xlink" x="0px" y="0px"
	 width="90.34px" height="100px" viewBox="0 0 90.34 100" enable-background="new 0 0 90.34 100" xml:space="preserve">
<path d="M81.382,85.761c2.604-3.183,3.519-7.61,2.003-11.753l-1.373-3.794h8.328V0H0v70.213h48.582l5.299,14.537
	c1.504,4.141,5.053,6.952,9.094,7.709l2.489,7.537L86.311,100L81.382,85.761z M73.803,47.825c-4.451,1.622-6.751,6.554-5.129,11.008
	l3.213,8.765H2.615V2.615H87.73v64.982h-6.688L73.803,47.825z"/>
<path d="M80.005,35.982c-19.237,19.234-50.433,19.234-69.671,0l28.27-28.283c3.622,3.628,9.501,3.628,13.123,0L80.005,35.982z
	 M59.951,30.237c3.078-2.114,3.867-6.319,1.768-9.409c-2.117-3.078-6.33-3.87-9.404-1.76c-3.084,2.124-3.866,6.326-1.756,9.401
	C52.664,31.551,56.87,32.336,59.951,30.237z M52.652,34.214c-0.137-0.391-0.313-0.764-0.623-1.086c0,0-5.488-5.793-6.844-7.218
	c0.09-1.723,0.304-6.185,0.304-6.185c0.073-1.602-1.176-2.975-2.784-3.047c-1.604-0.08-2.975,1.159-3.047,2.771l-0.346,7.426
	c-0.042,0.792,0.246,1.574,0.789,2.145l2.508,2.649l-7.53,4.97l0.405-5.686c-0.194-2.193-2.131-3.812-4.313-3.625
	c0,0-7.16,0.495-9.757,0.712c-1.643,0.145-2.871,1.595-2.722,3.241c0.138,1.643,1.594,2.867,3.233,2.729
	c1.812-0.159,6.05-0.304,7.769-0.446c0,0-1.487,4.33-1.179,6.468c0.194,1.401,0.595,2.812,1.449,4.064
	c2.643,3.857,7.917,4.846,11.771,2.2c1.38-0.941,8.24-5.631,9.529-6.517C53.079,38.527,53.643,36.131,52.652,34.214z"/>
</svg>
