<?xml version="1.0" encoding="utf-8"?>
<!-- Generator: Adobe Illustrator 14.0.0, SVG Export Plug-In . SVG Version: 6.00 Build 43363)  -->
<!DOCTYPE svg PUBLIC "-//W3C//DTD SVG 1.1//EN" "http://www.w3.org/Graphics/SVG/1.1/DTD/svg11.dtd">
<svg version="1.1" id="Layer_1" xmlns="http://www.w3.org/2000/svg" xmlns:xlink="http://www.w3.org/1999/xlink" x="0px" y="0px"
	 width="100px" height="88.002px" viewBox="0 0 100 88.002" enable-background="new 0 0 100 88.002" xml:space="preserve">
<path d="M95.747,32.157h-8.828c-0.91-2.266-2.047-4.43-3.402-6.465V0L66.754,11.625C61.086,9.031,54.68,7.539,47.874,7.539
	c-20.082,0-36.828,12.743-40.662,29.669C3.209,37.333,0,40.579,0,44.595c0,4.014,3.209,7.264,7.211,7.389
	c1.752,7.729,6.225,14.559,12.453,19.729l-2.289,16.289h17.73l0.24-8.078c3.949,1.117,8.158,1.728,12.525,1.728
	s8.574-0.609,12.527-1.728l0.238,8.078h17.729l-2.281-16.289c4.828-4.01,8.57-9.021,10.832-14.682h8.828
	c2.34,0,4.254-1.906,4.254-4.234V36.392C100,34.06,98.086,32.157,95.747,32.157z M63.456,22.63c-0.629,1.724-2.262,2.793-4,2.793
	c-0.479,0-0.973-0.086-1.447-0.258c-6.414-2.312-13.855-2.312-20.266,0c-2.209,0.801-4.652-0.336-5.453-2.535
	c-0.803-2.199,0.338-4.629,2.547-5.426c8.277-2.993,17.797-2.993,26.072,0C63.12,18.001,64.258,20.431,63.456,22.63z"/>
</svg>
