<?xml version="1.0" encoding="utf-8"?>
<!-- Generator: Adobe Illustrator 14.0.0, SVG Export Plug-In . SVG Version: 6.00 Build 43363)  -->
<!DOCTYPE svg PUBLIC "-//W3C//DTD SVG 1.1//EN" "http://www.w3.org/Graphics/SVG/1.1/DTD/svg11.dtd">
<svg version="1.1" id="Layer_1" xmlns="http://www.w3.org/2000/svg" xmlns:xlink="http://www.w3.org/1999/xlink" x="0px" y="0px"
	 width="98.801px" height="100px" viewBox="0 0 98.801 100" enable-background="new 0 0 98.801 100" xml:space="preserve">
<g>
	<g>
		<path d="M88.497,55.794V35.826c0-2.833,2.318-5.139,5.168-5.139c2.84,0,5.139,2.306,5.139,5.139V63.17
			c0,3.78-1.36,7.434-3.803,10.286L77.95,91.564c-1.691,1.593-2.107,3.004-2.107,5.14V100H57.284l-0.021-7.844
			c0-2.986-0.244-6.979,3.494-10.896l21.636-21.725c0.771-0.743,1.782-1.149,2.853-1.149c2.264,0,4.105,1.837,4.105,4.097
			c0,0.978-0.346,1.925-0.977,2.67l-10.436,11.18c-0.677,0.793-1.82,2.287-2.389,4.118c-0.309,0.95-0.396,1.879-0.412,2.94h3.359
			c0.014-0.758,0.068-1.365,0.25-1.931c0.328-1.058,0.983-2.006,1.476-2.616l10.593-11.626c1.332-1.343,2.062-3.082,2.062-4.909
			C92.875,59.564,91.226,57.04,88.497,55.794z"/>
	</g>
</g>
<g>
	<g>
		<path d="M10.306,55.794V35.826c0-2.833-2.319-5.139-5.169-5.139C2.298,30.687,0,32.993,0,35.826V63.17
			c0,3.78,1.36,7.434,3.802,10.286l17.052,18.106c1.691,1.594,2.106,3.004,2.106,5.141V100h18.559l0.021-7.844
			c0-2.986,0.244-6.979-3.495-10.896L16.41,59.537c-0.771-0.743-1.782-1.148-2.853-1.148c-2.263,0-4.105,1.836-4.105,4.096
			c0,0.978,0.345,1.925,0.977,2.671l10.436,11.178c0.677,0.793,1.821,2.287,2.389,4.118c0.307,0.951,0.394,1.879,0.412,2.941h-3.359
			c-0.014-0.759-0.07-1.367-0.251-1.932c-0.328-1.057-0.983-2.006-1.475-2.615L7.987,67.218c-1.333-1.343-2.061-3.082-2.061-4.909
			C5.926,59.564,7.575,57.04,10.306,55.794z"/>
	</g>
</g>
<path d="M51.354,8.845c2.436,0,4.404-1.974,4.404-4.408c0-2.428-1.971-4.405-4.404-4.405c-2.431,0-4.401,1.978-4.401,4.405
	C46.953,6.871,48.923,8.845,51.354,8.845z"/>
<path d="M27.452,8.869c-2.469,0-4.468-1.981-4.468-4.436C22.984,1.984,24.983,0,27.452,0c2.469,0,4.475,1.984,4.475,4.433
	C31.927,6.888,29.921,8.869,27.452,8.869z"/>
<g>
	<circle cx="73.245" cy="22.786" r="3.09"/>
	<path d="M77.717,27.4c-1.088,0-7.281,0-8.336,0c-0.037,0-2.789-0.251-2.789-0.251L63.101,14.98c-1.406-4.9-5.515-4.75-5.515-4.75
		h-5.752h-5.548c0,0-4.105-0.15-5.51,4.75l-1.723,5.992l-1.719-5.992c-1.413-4.9-5.511-4.75-5.511-4.75h-4.377h-4.367
		c0,0-4.108-0.15-5.514,4.75l-3.52,12.263c-0.334,1.147,0.293,2.019,1.297,2.309c1.001,0.286,2.026-0.22,2.285-1.133l3.428-11.953
		l1.67-0.003L17.72,37.159h4.423v0.007v14.693c0,1.211,0.977,2.197,2.19,2.197c1.21,0,2.201-0.986,2.201-2.197v-14.7h1.855v14.7
		c0,1.211,0.977,2.197,2.187,2.197c1.217,0,2.204-0.986,2.204-2.197V37.166v-0.007h4.346l-4.953-20.696l1.664,0.003l3.39,11.827
		c0.056,0.202,0.146,0.387,0.265,0.547c0.332,0.502,0.91,0.781,1.556,0.76c0.645,0.021,1.221-0.254,1.552-0.75
		c0.14-0.178,0.234-0.384,0.29-0.61l3.373-11.775l1.538-0.003c0,0,0,32.862,0,34.972c0,1.432,1.168,2.586,2.595,2.586
		c1.426,0,2.584-1.154,2.584-2.586c0-2.109,0-19.896,0-19.896h1.911c0,0,0,17.788,0,19.896c0,1.432,1.158,2.586,2.581,2.586
		c1.43,0,2.603-1.154,2.603-2.586c0-2.109,0-34.972,0-34.972l1.67,0.003l3.282,11.953c0.179,0.589,0.669,0.977,1.259,1.126
		c0.024,0.007,0.039,0.018,0.061,0.024c0.521,0.119,2.934,0.802,4.705,1.308c0,3.226,0,20.344,0,21.69c0,1,0.818,1.812,1.82,1.812
		c1,0,1.813-0.812,1.813-1.812c0-1.485,0-10.836,0-10.836h1.423c0,0,0,9.351,0,10.836c0,1,0.812,1.812,1.812,1.812
		c1.002,0,1.824-0.812,1.824-1.812c0-1.485,0-20.261,0-20.261h1.396c0,0,0,5.999,0,6.864c0,0.753,0.61,1.36,1.354,1.36
		c0.746,0,1.336-0.607,1.336-1.36c0-0.743,0-6.693,0-7.81C81.831,29.175,79.907,27.4,77.717,27.4z"/>
</g>
</svg>
