<?xml version="1.0" encoding="utf-8"?>
<!-- Generator: Adobe Illustrator 14.0.0, SVG Export Plug-In . SVG Version: 6.00 Build 43363)  -->
<!DOCTYPE svg PUBLIC "-//W3C//DTD SVG 1.1//EN" "http://www.w3.org/Graphics/SVG/1.1/DTD/svg11.dtd">
<svg version="1.1" id="Layer_1" xmlns="http://www.w3.org/2000/svg" xmlns:xlink="http://www.w3.org/1999/xlink" x="0px" y="0px"
	 width="99.875px" height="100px" viewBox="0 0 99.875 100" enable-background="new 0 0 99.875 100" xml:space="preserve">
<circle fill="#231F20" cx="43.551" cy="33.621" r="4.149"/>
<path fill="#231F20" d="M50.705,29.436C62.1,8.877,64.048,0.677,62.953,0.045c-1.094-0.631-7.217,5.15-19.316,25.282
	C46.652,25.359,49.276,27.003,50.705,29.436z"/>
<path fill="#231F20" d="M35.253,33.621c0-1.486,0.397-2.879,1.084-4.087C12.889,29.949,4.83,32.359,4.83,33.621
	c0,1.261,8.058,3.672,31.507,4.086C35.65,36.5,35.253,35.108,35.253,33.621z"/>
<path fill="#231F20" d="M50.713,37.794c-1.422,2.436-4.046,4.083-7.06,4.119c12.09,20.108,18.207,25.884,19.302,25.254
	C64.048,66.535,62.102,58.34,50.713,37.794z"/>
<path fill="#231F20" d="M39.402,42.889v1.795V100h8.297V56.07C45.321,52.552,42.575,48.22,39.402,42.889z"/>
<circle fill="#231F20" cx="76.777" cy="59.92" r="2.766"/>
<path fill="#231F20" d="M72.169,56.868c-6.517-11.843-7.659-16.624-7.017-16.997c0.643-0.369,4.207,3.006,11.203,14.561
	C74.609,54.566,73.085,55.488,72.169,56.868z"/>
<path fill="#231F20" d="M82.309,59.92c0-0.869-0.219-1.681-0.576-2.412c13.449,0.283,18.145,1.68,18.145,2.422
	c0,0.739-4.693,2.137-18.148,2.42C82.087,61.614,82.309,60.796,82.309,59.92z"/>
<path fill="#231F20" d="M72.168,62.973c0.917,1.381,2.439,2.303,4.188,2.438c-6.994,11.555-10.561,14.931-11.203,14.562
	C64.51,79.596,65.652,74.816,72.168,62.973z"/>
<path fill="#231F20" d="M79.543,65.488L79.52,100h-5.531l0.023-25.77C75.564,71.973,77.396,69.102,79.543,65.488z"/>
<circle fill="#231F20" cx="11.782" cy="59.92" r="2.766"/>
<path fill="#231F20" d="M7.174,56.868c-6.517-11.843-7.66-16.624-7.017-16.997C0.8,39.502,4.365,42.877,11.36,54.432
	C9.613,54.566,8.089,55.488,7.174,56.868z"/>
<path fill="#231F20" d="M17.313,59.92c0-0.869-0.219-1.681-0.577-2.412c13.449,0.283,18.142,1.68,18.142,2.422
	c0,0.739-4.695,2.137-18.15,2.42C17.092,61.614,17.313,60.796,17.313,59.92z"/>
<path fill="#231F20" d="M7.172,62.973c0.917,1.381,2.44,2.303,4.188,2.438C4.365,76.963,0.8,80.339,0.157,79.968
	C-0.486,79.596,0.657,74.816,7.172,62.973z"/>
<path fill="#231F20" d="M14.547,65.488L14.524,100H8.993l0.023-25.77C10.569,71.973,12.4,69.102,14.547,65.488z"/>
</svg>
