<?xml version="1.0" encoding="utf-8"?>
<!-- Generator: Adobe Illustrator 14.0.0, SVG Export Plug-In . SVG Version: 6.00 Build 43363)  -->
<!DOCTYPE svg PUBLIC "-//W3C//DTD SVG 1.1//EN" "http://www.w3.org/Graphics/SVG/1.1/DTD/svg11.dtd">
<svg version="1.1" id="Calque_1" xmlns="http://www.w3.org/2000/svg" xmlns:xlink="http://www.w3.org/1999/xlink" x="0px" y="0px"
	 width="100px" height="100px" viewBox="0 0 100 100" enable-background="new 0 0 100 100" xml:space="preserve">
<path d="M88.627,40.79L52.428,27.397V21.41h12.651v4.464h14.538l-7.268-8.98l7.268-8.98H65.079V3.455H52.428
	c0-1.908-1.549-3.455-3.46-3.455c-1.909,0-3.457,1.546-3.457,3.455v23.488L9.351,40.817c-1.317,0.728-2.069,2.583-1.943,4.471
	c-0.044,0.229-0.071,0.468-0.071,0.716c0,1.908,1.44,3.457,3.22,3.457h38.427h38.427c1.782,0,3.222-1.548,3.222-3.457
	c0-0.133-0.023-0.257-0.037-0.386C90.844,43.586,90.044,41.533,88.627,40.79z"/>
<path d="M83.379,90.021l-1.15-30.451c0-1.909-1.547-3.455-3.457-3.455s-3.457,1.546-3.457,3.455l-1.188,30.451H63.434l-1.151-30.19
	c0-1.908-1.552-3.454-3.459-3.454c-1.908,0-3.457,1.546-3.457,3.454l-1.117,30.19H43.571L42.383,59.57
	c0-1.909-1.548-3.455-3.457-3.455c-1.911,0-3.459,1.546-3.459,3.455l-1.151,30.451H23.499L22.311,59.57
	c0-1.909-1.546-3.455-3.455-3.455c-1.913,0-3.459,1.546-3.459,3.455l-1.151,30.451H7.333V100h83.122v-9.979H83.379z"/>
</svg>
