<?xml version="1.0" encoding="utf-8"?>
<!-- Generator: Adobe Illustrator 14.0.0, SVG Export Plug-In . SVG Version: 6.00 Build 43363)  -->
<!DOCTYPE svg PUBLIC "-//W3C//DTD SVG 1.1//EN" "http://www.w3.org/Graphics/SVG/1.1/DTD/svg11.dtd">
<svg version="1.1" id="Layer_1" xmlns="http://www.w3.org/2000/svg" xmlns:xlink="http://www.w3.org/1999/xlink" x="0px" y="0px"
	 width="100px" height="100px" viewBox="0 0 100 100" enable-background="new 0 0 100 100" xml:space="preserve">
<path d="M87.58,16.491c-0.075-0.142-0.428-0.109-0.428-0.109c-8.536,2.137-11.697-4.56-11.697-4.56
	C66.382,0.276,51.743-3.15,35.743,6.251c-13.451,7.903-15.779,23.445-8.265,35.951c0.497,0.826,5.877,8.435,6.451,9.255
	c0.857,1.225,0.623,2.708-0.131,4.189c0,0-0.071,0.188,0.116,0.229c0.062,0.013,0.22-0.041,0.22-0.041s2.109-0.487,5.348-1.762
	c-0.642,7.3-7.982,13.563-11.181,16.938C15.33,84.688,17.087,95.682,17.038,98.927h57.414c-0.036-0.887-0.177-2.358-0.579-4.771
	c-0.885-5.306-5.939-10.484-8.551-14.695c-2.088-3.368-5.112-5.208-4.483-12.851c0.242-2.934,1.12-4.795,2.363-5.954l0.228,1.047
	c0.891,4.124,3.074,8.325,4.983,11.442c1.93,3.157,3.647,5.311,3.647,5.311l2.053-1.641c-0.021-0.023-6.504-8.193-8.116-15.67
	c-0.132-0.603-0.267-1.222-0.406-1.854c4.091-1.294,9.634,0.729,11.808-0.648c3.232-2.047,1.301-4.302,1.349-5.916
	c0.089-2.978,1.669-2.366,1.772-3.146c0.168-1.274-0.908-1.378-0.91-1.572c0.013-0.509,1.763-0.974,1.469-1.704
	c-0.245-0.603-1.003-2.164-1.229-2.784c-0.492-1.353,5.137-1.41,4.159-3.191c-0.7-1.278-3.844-5.912-4.935-7.455
	c-1.676-2.37-1.237-3.28-0.287-5.027c0.465-0.862-1.374-2.996-1.477-3.88l-0.033-0.263c2.729-2.361,5.935-4.628,10.173-6.826
	C87.449,16.879,87.693,16.704,87.58,16.491z M53.641,34.324l-6.492-1.623l1.617-6.489l6.489,1.623L53.641,34.324z"/>
</svg>
