<?xml version="1.0" encoding="utf-8"?>
<!-- Generator: Adobe Illustrator 14.0.0, SVG Export Plug-In . SVG Version: 6.00 Build 43363)  -->
<!DOCTYPE svg PUBLIC "-//W3C//DTD SVG 1.1//EN" "http://www.w3.org/Graphics/SVG/1.1/DTD/svg11.dtd">
<svg version="1.1" id="Layer_1" xmlns="http://www.w3.org/2000/svg" xmlns:xlink="http://www.w3.org/1999/xlink" x="0px" y="0px"
	 width="75.945px" height="100px" viewBox="0 0 75.945 100" enable-background="new 0 0 75.945 100" xml:space="preserve">
<path d="M37.973,24.967c-6.945,0-12.585-5.592-12.585-12.486C25.388,5.588,31.027,0,37.973,0c6.947,0,12.584,5.588,12.584,12.481
	C50.557,19.375,44.92,24.967,37.973,24.967z"/>
<path d="M75.689,76.671l-9.905-34.512c-3.965-13.792-15.508-13.362-15.508-13.362H25.671c0,0-11.547-0.431-15.505,13.362
	l-9.91,34.512c-0.946,3.226,0.834,5.688,3.653,6.495c2.812,0.809,5.695-0.609,6.437-3.191l9.632-33.638l4.706-0.007L9.283,100H66.66
	L51.264,46.33l4.698,0.007l9.636,33.638c0.74,2.582,3.621,4,6.44,3.191C74.855,82.359,76.638,79.896,75.689,76.671z M56.575,78.208
	c0,10.272-8.329,18.604-18.6,18.604c-10.279,0-18.607-8.332-18.607-18.604c0-10.278,8.328-18.604,18.607-18.604
	C48.246,59.605,56.575,67.93,56.575,78.208z"/>
<path d="M41.976,73.68c-2.235-1.053-3.186-3.718-2.128-5.953c1.059-2.226,3.723-3.179,5.951-2.123
	c2.232,1.061,3.179,3.726,2.125,5.957C46.864,73.787,44.204,74.74,41.976,73.68z"/>
<path d="M46.139,79.907c-0.439,0.936-2.794,5.896-3.271,6.892c-1.319,2.789-4.658,3.979-7.452,2.662
	c-0.905-0.438-1.601-1.105-2.184-1.84c-0.884-1.116-1.478-4.094-1.478-4.094c-0.929,0.656-3.303,2.152-4.285,2.851
	c-0.893,0.623-2.128,0.41-2.757-0.481c-0.634-0.894-0.415-2.127,0.473-2.758c1.414-0.988,5.333-3.652,5.333-3.652
	c1.192-0.838,2.835-0.563,3.673,0.634l1.664,3.381l2.646-5.349l-2.312-0.676c-0.508-0.146-0.927-0.496-1.173-0.965l-2.268-4.354
	c-0.493-0.943-0.127-2.108,0.819-2.598c0.941-0.496,2.105-0.125,2.601,0.813c0,0,1.364,2.623,1.889,3.633
	c1.246,0.365,6.313,1.839,6.313,1.839c0.273,0.086,0.505,0.241,0.712,0.422C46.284,77.033,46.765,78.584,46.139,79.907z"/>
</svg>
