<?xml version="1.0" encoding="utf-8"?>
<!-- Generator: Adobe Illustrator 14.0.0, SVG Export Plug-In . SVG Version: 6.00 Build 43363)  -->
<!DOCTYPE svg PUBLIC "-//W3C//DTD SVG 1.1//EN" "http://www.w3.org/Graphics/SVG/1.1/DTD/svg11.dtd">
<svg version="1.1" id="Capa_1" xmlns="http://www.w3.org/2000/svg" xmlns:xlink="http://www.w3.org/1999/xlink" x="0px" y="0px"
	 width="70.137px" height="100px" viewBox="0 0 70.137 100" enable-background="new 0 0 70.137 100" xml:space="preserve">
<g>
	<rect x="11.933" y="43.06" width="7.902" height="30.411"/>
	<rect x="23.188" y="43.06" width="7.899" height="30.411"/>
	<rect x="38.749" y="43.06" width="7.904" height="30.411"/>
	<rect x="8.579" y="74.429" width="53.395" height="3.111"/>
	<rect x="3.579" y="78.808" width="63.404" height="3.692"/>
	<rect x="50.007" y="43.06" width="7.901" height="30.411"/>
	<path d="M63.02,38.099v-2.646L35.635,23.481L7.538,35.453v2.646H3.579v3.696h63.404v-3.696H63.02z M35.275,27.373
		c2.054,0,3.714,1.665,3.714,3.713c0,2.051-1.66,3.712-3.714,3.712c-2.047,0-3.708-1.662-3.708-3.712
		C31.568,29.037,33.228,27.373,35.275,27.373z"/>
</g>
</svg>
