<?xml version="1.0" encoding="utf-8"?>
<!-- Generator: Adobe Illustrator 14.0.0, SVG Export Plug-In . SVG Version: 6.00 Build 43363)  -->
<!DOCTYPE svg PUBLIC "-//W3C//DTD SVG 1.1//EN" "http://www.w3.org/Graphics/SVG/1.1/DTD/svg11.dtd">
<svg version="1.1" id="Calque_1" xmlns="http://www.w3.org/2000/svg" xmlns:xlink="http://www.w3.org/1999/xlink" x="0px" y="0px"
	 width="100px" height="83.73px" viewBox="0 0 100 83.73" enable-background="new 0 0 100 83.73" xml:space="preserve">
<g>
	<rect x="45.399" y="0" width="7.729" height="20.234"/>
	<polygon points="80.123,51.216 99.955,47.209 98.427,39.637 78.592,43.643 	"/>
	<polygon points="87.591,17.478 82.126,12.016 67.819,26.322 73.284,31.787 	"/>
	<polygon points="21.408,43.643 1.573,39.637 0.045,47.209 19.877,51.216 	"/>
	<path d="M75.879,71.166l-6.854-37.269c-0.736-4.038-5.125-7.073-9.85-7.073H43.272c-4.729,0-9.109,3.035-9.845,7.073l-6.859,37.269
		c-0.046,0.268-0.038,0.517-0.069,3.855h-9.317v8.709h68.084v-8.709h-9.317C75.919,71.681,75.928,71.433,75.879,71.166z
		 M50.284,70.83V32.314h7.104c3.665,0,7.068,2.349,7.64,5.479l5.317,28.905c0.04,0.215,0.028,0.423,0.055,4.131H50.284L50.284,70.83
		z"/>
	<polygon points="32.18,26.322 17.871,12.016 12.409,17.478 26.716,31.787 	"/>
</g>
</svg>
