<?xml version="1.0" encoding="utf-8"?>
<!-- Generator: Adobe Illustrator 14.0.0, SVG Export Plug-In . SVG Version: 6.00 Build 43363)  -->
<!DOCTYPE svg PUBLIC "-//W3C//DTD SVG 1.1//EN" "http://www.w3.org/Graphics/SVG/1.1/DTD/svg11.dtd">
<svg version="1.1" id="Layer_1" xmlns="http://www.w3.org/2000/svg" xmlns:xlink="http://www.w3.org/1999/xlink" x="0px" y="0px"
	 width="100px" height="64.355px" viewBox="0 0 100 64.355" enable-background="new 0 0 100 64.355" xml:space="preserve">
<path d="M98.247,48.643l-7.88-19.299c-3.311-7.763,7.994-9.132,7.994-9.132c2.512-1.258,0-2.627,0-2.627
	c-2.627,0.567-4.568-2.739-4.568-2.739l-1.482-3.085c-0.799-1.826-1.027-2.055-0.115-5.593c0.914-3.543-1.997-3.371-2.512-2.857
	c-0.515,0.518-2.113,1.313-3.312,0.114s-4.224-1.14-4.224-1.14L81.006,0h-1.257l-1.255,2.284H56.341v0.685H9.982V1.827H9.066
	c-0.112-0.915-0.797-1.6-0.797-1.6c-3.77,0-4.567,2.854-4.567,2.854H0.731C-0.98,6.167,0.849,9.591,0.849,9.591h3.31v9.249h6.965
	l0.569,1.486h17.359c16.213,0,13.358,13.586,13.358,13.586c12.219,5.596,19.869,2.057,19.869,2.057
	c6.053-1.255,7.193,3.882,7.193,3.882l4.109,16.33c0.343,2.854-0.143,4.563-0.143,4.563l0.009,0.233h-0.009v2.306
	c0,0-0.094,1.248,1.631,1.054l19.16-1.612c0.465,0.784,1.311,1.313,2.285,1.313c1.473,0,2.664-1.193,2.664-2.663
	c0-0.294-0.06-0.52-0.146-0.712l0.583-0.004C100.986,53.007,98.247,48.643,98.247,48.643z M90.766,3.642
	c0.479,0,0.871,0.39,0.871,0.872c0,0.481-0.392,0.87-0.871,0.87c-0.481,0-0.875-0.389-0.875-0.87
	C89.891,4.031,90.283,3.642,90.766,3.642z M66.618,30.6c-0.345,2.059-2.513,3.199-2.513,3.199
	c-7.41,2.489-12.168,1.789-15.927,0.661c-4.589-1.38-4.282-5.803-4.282-5.803c0-6.051,6.281-5.937,6.281-5.937h5.138
	c2.855,6.85-4.11,9.938-4.11,9.938c-0.916,0.226,0,0.912,0,0.912c4.224-0.113,7.647-6.966,7.647-6.966L58.74,23.75l1.596-1.029
	C66.618,22.721,66.961,28.546,66.618,30.6z M98.246,61.374c0,0.953-0.777,1.729-1.73,1.729c-0.955,0-1.729-0.774-1.729-1.729
	c0-0.243,0.052-0.475,0.141-0.684l3.165-0.022C98.188,60.884,98.246,61.122,98.246,61.374z"/>
</svg>
