<?xml version="1.0" encoding="utf-8"?>
<!-- Generator: Adobe Illustrator 14.0.0, SVG Export Plug-In . SVG Version: 6.00 Build 43363)  -->
<!DOCTYPE svg PUBLIC "-//W3C//DTD SVG 1.1//EN" "http://www.w3.org/Graphics/SVG/1.1/DTD/svg11.dtd">
<svg version="1.1" id="Layer_1" xmlns="http://www.w3.org/2000/svg" xmlns:xlink="http://www.w3.org/1999/xlink" x="0px" y="0px"
	 width="56.625px" height="100px" viewBox="0 0 56.625 100" enable-background="new 0 0 56.625 100" xml:space="preserve">
<path d="M26.341,71.348c0.319,0.187,0.737,0.073,0.923-0.248l1.023-1.776c0.188-0.319,0.075-0.737-0.246-0.923L5.874,55.598
	c-0.321-0.183-0.735-0.07-0.919,0.25l-1.027,1.775c-0.184,0.318-0.074,0.732,0.248,0.919L26.341,71.348z"/>
<path d="M6.661,72.514c0.321,0.187,0.735,0.072,0.919-0.246l3.45-5.975l-6.055-3.496l-3.447,5.975
	c-0.186,0.319-0.074,0.737,0.246,0.92L6.661,72.514z"/>
<path d="M13.001,76.174l4.888,2.822c0.319,0.186,0.733,0.072,0.919-0.246l3.449-5.971l-6.053-3.5l-3.452,5.979
	C12.571,75.573,12.679,75.986,13.001,76.174z"/>
<path d="M52.575,90.716h-6.313c6.383-6.097,10.364-14.687,10.364-24.213c0-8.907-3.48-17-9.153-22.998
	c-0.707,3.266-2.996,5.942-6.022,7.188c3.668,4.24,5.893,9.766,5.893,15.81c0,13.37-10.84,24.213-24.209,24.213H4.047
	C1.824,90.716,0,92.537,0,94.764V100h56.625v-5.236C56.625,92.537,54.803,90.716,52.575,90.716z"/>
<circle cx="37.631" cy="41.381" r="7.291"/>
<path d="M25.102,63.077l7.501-12.986c-3.007-1.743-5.037-4.989-5.037-8.71c0-5.55,4.517-10.067,10.065-10.067
	c1.832,0,3.548,0.498,5.029,1.358l5.834-10.107c0.278-0.482,0.334-1.035,0.199-1.536c-0.132-0.5-0.456-0.951-0.938-1.229
	l-1.149-0.665L52.875,8.28l0.487,0.284C53.735,8.78,54.215,8.65,54.43,8.28l1.186-2.052c0.211-0.369,0.086-0.848-0.285-1.063
	l-8.746-5.061c-0.371-0.215-0.853-0.085-1.065,0.287l-1.185,2.051c-0.215,0.37-0.086,0.849,0.283,1.064l0.487,0.283l-6.271,10.86
	l-1.016-0.586c-0.48-0.277-1.033-0.333-1.533-0.197c-0.5,0.134-0.951,0.457-1.23,0.939L11.664,55.32L25.102,63.077z"/>
</svg>
